<svg xmlns:xlink="http://www.w3.org/1999/xlink" data-component-name="icon" xmlns="http://www.w3.org/2000/svg"
    focusable="false" aria-hidden="true" class="a-icon a-icon--cms a-icon--small" width="40" height="40">
    <defs>
        <symbol viewBox="0 0 40 40" id="a_ico-cms_48_gepaeckstueck_bis_23kg">
            <path fill="#840B55"
                d="m16.034 13.23.054-1.612c-.004-.146.123-.268.281-.271l5.42-.123c.154 0 .282.116.285.258l.071 1.388-6.11.36m15.9 5.295c-.047-1.833-.395-3.144-.992-4.056a3.739 3.739 0 0 0-1.256-1.211 4.123 4.123 0 0 0-.338-.172c-.038-.018-.078-.032-.116-.049a4.183 4.183 0 0 0-.242-.095c-.047-.017-.096-.032-.145-.047a5.32 5.32 0 0 0-1.05-.225c-.058-.007-.115-.015-.173-.02a7.92 7.92 0 0 0-.271-.022c-.056-.004-.111-.009-.168-.012a9.268 9.268 0 0 0-.321-.008c-.045 0-.088-.003-.134-.003-.039 0-.99.055-2.392.136l-.068-1.326c-.04-1.319-1.148-2.388-2.48-2.388l-5.47.123c-.219.005-.43.04-.63.099a2.469 2.469 0 0 0-1.797 2.383l-.06 1.729-1.928.114c-2.148 0-3.786 2.095-3.786 4.48l.021 7.228c.183 2.257 1.33 3.037 3.109 3.671a1.657 1.657 0 0 0 2.812.347l8.674.886a1.658 1.658 0 0 0 2.774.284l.363.036c.1.008.2.013.3.017l.097.002a5.024 5.024 0 0 0 .502-.009 7.997 7.997 0 0 0 .442-.042 6.88 6.88 0 0 0 .448-.076l.13-.029.154-.038a7.219 7.219 0 0 0 .277-.081l.12-.04c.051-.017.1-.036.15-.055l.114-.043.152-.065c.035-.016.07-.03.105-.047.052-.024.104-.05.155-.076l.093-.047c.056-.03.11-.062.165-.094l.075-.042c.07-.042.139-.086.206-.132l.025-.015c.076-.052.151-.106.225-.161l.025-.02c.064-.05.126-.099.187-.15l.061-.054c.048-.042.096-.084.143-.128l.069-.067c.041-.04.083-.081.124-.124l.07-.077c.038-.041.076-.082.113-.125l.07-.083c.034-.043.07-.085.103-.128l.067-.09c.032-.043.064-.086.094-.13l.065-.097c.03-.044.058-.089.086-.133l.061-.102a6.044 6.044 0 0 0 .206-.385 5.422 5.422 0 0 0 .31-.79c.013-.041.026-.082.037-.123.015-.052.029-.105.042-.158l.031-.124c.013-.054.023-.108.035-.163l.024-.126c.01-.056.02-.113.028-.17.006-.042.013-.083.018-.125.008-.06.014-.12.02-.181.004-.04.01-.08.013-.12.005-.067.008-.135.012-.204l.006-.103c.003-.104.005-.208.003-.313 0 0 .015-5.86.006-6.216">
            </path>
        </symbol>
    </defs>
    <g>
        <path fill="#840B55"
            d="m16.034 13.23.054-1.612c-.004-.146.123-.268.281-.271l5.42-.123c.154 0 .282.116.285.258l.071 1.388-6.11.36m15.9 5.295c-.047-1.833-.395-3.144-.992-4.056a3.739 3.739 0 0 0-1.256-1.211 4.123 4.123 0 0 0-.338-.172c-.038-.018-.078-.032-.116-.049a4.183 4.183 0 0 0-.242-.095c-.047-.017-.096-.032-.145-.047a5.32 5.32 0 0 0-1.05-.225c-.058-.007-.115-.015-.173-.02a7.92 7.92 0 0 0-.271-.022c-.056-.004-.111-.009-.168-.012a9.268 9.268 0 0 0-.321-.008c-.045 0-.088-.003-.134-.003-.039 0-.99.055-2.392.136l-.068-1.326c-.04-1.319-1.148-2.388-2.48-2.388l-5.47.123c-.219.005-.43.04-.63.099a2.469 2.469 0 0 0-1.797 2.383l-.06 1.729-1.928.114c-2.148 0-3.786 2.095-3.786 4.48l.021 7.228c.183 2.257 1.33 3.037 3.109 3.671a1.657 1.657 0 0 0 2.812.347l8.674.886a1.658 1.658 0 0 0 2.774.284l.363.036c.1.008.2.013.3.017l.097.002a5.024 5.024 0 0 0 .502-.009 7.997 7.997 0 0 0 .442-.042 6.88 6.88 0 0 0 .448-.076l.13-.029.154-.038a7.219 7.219 0 0 0 .277-.081l.12-.04c.051-.017.1-.036.15-.055l.114-.043.152-.065c.035-.016.07-.03.105-.047.052-.024.104-.05.155-.076l.093-.047c.056-.03.11-.062.165-.094l.075-.042c.07-.042.139-.086.206-.132l.025-.015c.076-.052.151-.106.225-.161l.025-.02c.064-.05.126-.099.187-.15l.061-.054c.048-.042.096-.084.143-.128l.069-.067c.041-.04.083-.081.124-.124l.07-.077c.038-.041.076-.082.113-.125l.07-.083c.034-.043.07-.085.103-.128l.067-.09c.032-.043.064-.086.094-.13l.065-.097c.03-.044.058-.089.086-.133l.061-.102a6.044 6.044 0 0 0 .206-.385 5.422 5.422 0 0 0 .31-.79c.013-.041.026-.082.037-.123.015-.052.029-.105.042-.158l.031-.124c.013-.054.023-.108.035-.163l.024-.126c.01-.056.02-.113.028-.17.006-.042.013-.083.018-.125.008-.06.014-.12.02-.181.004-.04.01-.08.013-.12.005-.067.008-.135.012-.204l.006-.103c.003-.104.005-.208.003-.313 0 0 .015-5.86.006-6.216">
        </path>
    </g>
</svg>