<svg xmlns:xlink="http://www.w3.org/1999/xlink" data-component-name="icon" xmlns="http://www.w3.org/2000/svg"
    focusable="false" aria-hidden="true" class="a-icon a-icon--cms a-icon--small" width="40" height="40">
    <defs>
        <symbol viewBox="0 0 40 40" id="a_ico-cms_172_zwei_gepaeckstuecke_bis_23kg">
            <g fill="none">
                <path fill="#AA0061"
                    d="M12.716 12.538c-.002-.087.072-.159.166-.161l3.207-.073c.091 0 .167.069.169.153l.042.824-3.616.214.032-.939v-.018Zm3.714 2.851.558-.033.014-.413c0-.651.224-1.254.598-1.738h-.003l-.04-.788A1.473 1.473 0 0 0 16.088 11l-3.236.073a1.468 1.468 0 0 0-1.437 1.473l-.035 1.027-1.141.067C8.969 13.64 8 14.884 8 16.3l.013 4.29c.108 1.34.787 1.803 1.839 2.18a.98.98 0 0 0 1.664.205l1.093.113-.01-3.294c0-2.417 1.716-4.385 3.83-4.404Z">
                </path>
                <path fill="#840B55"
                    d="m19.822 16.172.041-1.255c-.003-.114.094-.208.215-.211l4.15-.096c.119 0 .217.09.219.201l.055 1.08-4.68.281m12.176 4.121c-.036-1.427-.303-2.447-.76-3.156a2.88 2.88 0 0 0-.962-.944 3.13 3.13 0 0 0-.258-.134l-.09-.037a3.202 3.202 0 0 0-.184-.074l-.111-.037a3.947 3.947 0 0 0-.805-.175l-.132-.016a6.011 6.011 0 0 0-.208-.017l-.128-.009a7.305 7.305 0 0 0-.246-.006l-.102-.003c-.03 0-.758.043-1.832.107l-.052-1.033c-.03-1.027-.88-1.859-1.9-1.859l-4.188.096a1.917 1.917 0 0 0-1.859 1.932l-.045 1.346-1.477.089c-1.645 0-2.899 1.63-2.899 3.486l.016 5.627c.14 1.757 1.019 2.364 2.38 2.858.2.45.644.762 1.158.762.406 0 .765-.193.996-.493l6.642.69c.21.42.637.707 1.134.707.4 0 .758-.19.99-.486l.278.029c.078.006.154.01.23.013h.074a4.28 4.28 0 0 0 .385-.006l.11-.008a4.335 4.335 0 0 0 .57-.084l.101-.022a6.123 6.123 0 0 0 .33-.093l.092-.03.115-.044c.03-.01.059-.022.087-.034.04-.016.078-.033.116-.05l.08-.036.12-.06.07-.036.127-.073.057-.033a4.03 4.03 0 0 0 .159-.102l.018-.012c.059-.041.116-.083.173-.126l.019-.016c.049-.038.097-.076.143-.116l.047-.042c.037-.033.073-.065.109-.1.018-.016.035-.034.053-.052.032-.032.064-.063.095-.096l.054-.06c.03-.032.058-.064.086-.098.018-.02.036-.043.054-.065.026-.033.053-.065.078-.099l.052-.07a4.32 4.32 0 0 0 .187-.28 4.18 4.18 0 0 0 .33-.668 4.513 4.513 0 0 0 .173-.545l.024-.097c.01-.042.017-.084.026-.126l.02-.098.02-.133.014-.097.016-.141.009-.094a4.83 4.83 0 0 0 .01-.158c0-.027.003-.054.004-.08.002-.081.004-.162.003-.244 0 0 .01-4.56.004-4.839">
                </path>
            </g>
        </symbol>
    </defs>
    <g>
        <g fill="none">
            <path fill="#AA0061"
                d="M12.716 12.538c-.002-.087.072-.159.166-.161l3.207-.073c.091 0 .167.069.169.153l.042.824-3.616.214.032-.939v-.018Zm3.714 2.851.558-.033.014-.413c0-.651.224-1.254.598-1.738h-.003l-.04-.788A1.473 1.473 0 0 0 16.088 11l-3.236.073a1.468 1.468 0 0 0-1.437 1.473l-.035 1.027-1.141.067C8.969 13.64 8 14.884 8 16.3l.013 4.29c.108 1.34.787 1.803 1.839 2.18a.98.98 0 0 0 1.664.205l1.093.113-.01-3.294c0-2.417 1.716-4.385 3.83-4.404Z">
            </path>
            <path fill="#840B55"
                d="m19.822 16.172.041-1.255c-.003-.114.094-.208.215-.211l4.15-.096c.119 0 .217.09.219.201l.055 1.08-4.68.281m12.176 4.121c-.036-1.427-.303-2.447-.76-3.156a2.88 2.88 0 0 0-.962-.944 3.13 3.13 0 0 0-.258-.134l-.09-.037a3.202 3.202 0 0 0-.184-.074l-.111-.037a3.947 3.947 0 0 0-.805-.175l-.132-.016a6.011 6.011 0 0 0-.208-.017l-.128-.009a7.305 7.305 0 0 0-.246-.006l-.102-.003c-.03 0-.758.043-1.832.107l-.052-1.033c-.03-1.027-.88-1.859-1.9-1.859l-4.188.096a1.917 1.917 0 0 0-1.859 1.932l-.045 1.346-1.477.089c-1.645 0-2.899 1.63-2.899 3.486l.016 5.627c.14 1.757 1.019 2.364 2.38 2.858.2.45.644.762 1.158.762.406 0 .765-.193.996-.493l6.642.69c.21.42.637.707 1.134.707.4 0 .758-.19.99-.486l.278.029c.078.006.154.01.23.013h.074a4.28 4.28 0 0 0 .385-.006l.11-.008a4.335 4.335 0 0 0 .57-.084l.101-.022a6.123 6.123 0 0 0 .33-.093l.092-.03.115-.044c.03-.01.059-.022.087-.034.04-.016.078-.033.116-.05l.08-.036.12-.06.07-.036.127-.073.057-.033a4.03 4.03 0 0 0 .159-.102l.018-.012c.059-.041.116-.083.173-.126l.019-.016c.049-.038.097-.076.143-.116l.047-.042c.037-.033.073-.065.109-.1.018-.016.035-.034.053-.052.032-.032.064-.063.095-.096l.054-.06c.03-.032.058-.064.086-.098.018-.02.036-.043.054-.065.026-.033.053-.065.078-.099l.052-.07a4.32 4.32 0 0 0 .187-.28 4.18 4.18 0 0 0 .33-.668 4.513 4.513 0 0 0 .173-.545l.024-.097c.01-.042.017-.084.026-.126l.02-.098.02-.133.014-.097.016-.141.009-.094a4.83 4.83 0 0 0 .01-.158c0-.027.003-.054.004-.08.002-.081.004-.162.003-.244 0 0 .01-4.56.004-4.839">
            </path>
        </g>
    </g>
</svg>