<svg xmlns:xlink="http://www.w3.org/1999/xlink" data-component-name="icon" xmlns="http://www.w3.org/2000/svg"
    focusable="false" aria-hidden="true" class="a-icon a-icon--ui-datetime a-icon--medium-24" width="24" height="24">
    <defs>
        <symbol viewBox="0 0 24 24" id="calendar">
            <path
                d="M15 2h2v2h2a2 2 0 0 1 2 2v14a2 2 0 0 1-2 2H5a2 2 0 0 1-2-2V6a2 2 0 0 1 2-2h2V2h2v2h6V2Zm4 8H5v10h14V10Z">
            </path>
        </symbol>
    </defs>
    <g>
        <path
            d="M15 2h2v2h2a2 2 0 0 1 2 2v14a2 2 0 0 1-2 2H5a2 2 0 0 1-2-2V6a2 2 0 0 1 2-2h2V2h2v2h6V2Zm4 8H5v10h14V10Z">
        </path>
    </g>
</svg>