<svg xmlns:xlink="http://www.w3.org/1999/xlink" xmlns="http://www.w3.org/2000/svg" focusable="false" aria-hidden="true"
    class="a-icon a-icon--cms a-icon--large" width="40" height="40">
    <defs>
        <symbol viewBox="0 0 40 40" id="a_ico-cms_157_unsere_tarife">
            <g fill="none" transform="translate(8 8)">
                <path fill="#840B55"
                    d="m18.184 21.507-.096-.983.371-.035.096.981-.371.037Zm-.243-2.527.37-.036.095.983-.371.037-.094-.984Zm-.148-1.541.372-.037.094.982-.372.036-.094-.981Zm-.148-1.545.372-.035.093.98-.37.039-.095-.984Zm-.146-1.543.37-.036.092.959.002.024-.371.036-.093-.983Zm5.901 4.6-.469.046-.294-3.061.47-.045c-.124-1.122-.206-1.734-.245-1.834a1.768 1.768 0 0 0-1.816-1.115l-3.275.315.044.497-.371.036-.06-.497L4.093 14.57A1.77 1.77 0 0 0 2.5 16.505l.13 1.354.47-.045.292 3.06-.47.045.13 1.355a1.77 1.77 0 0 0 1.93 1.595l13.305-1.277-.051-.525.372-.036.05.525c2.402-.248 3.652-.39 3.75-.428a1.774 1.774 0 0 0 1.122-1.823l-.13-1.354Z">
                </path>
                <path fill="#FFF"
                    d="M12.795 19.806a2.084 2.084 0 0 1-1.095.572c-.877.16-1.194-1.034-1.204-1.068l1.286-.12.105-.324.075-.231-1.575.147-.02-.312 1.656-.155.179-.554-1.803.167c.07-.458.237-.773.49-.95.128-.09.767-.16.94-.116.162.041.333.106.51.198l.226-.6.139-.367a3.424 3.424 0 0 0-.949-.24 4.781 4.781 0 0 0-.876.078c-.383.11-.706.313-.967.616-.338.386-.539.873-.6 1.484l-.378.034-.18.555.541-.05c-.003.014.004.119.021.312l-.296.028-.18.554.57-.053c.035.137.515 1.19.813 1.45.414.371.928.525 1.557.467a2.187 2.187 0 0 0 1.11-.402l-.095-1.12Z">
                </path>
                <path fill="#FFF" d="M13.844 5.919 14.444 6.7 14.741 6.471 14.139 5.689z"></path>
                <path fill="#FFF" d="M15.083 6.916 14.788 7.145 15.1 7.55 15.116 7.544 15.46 7.406z"></path>
                <path fill="#FFF" d="M12.898 4.691 13.5 5.472 13.795 5.243 13.193 4.463z"></path>
                <path fill="#FFF" d="M11.954 3.463 12.555 4.245 12.85 4.017 12.249 3.235z"></path>
                <path fill="#FFF" d="M11.306 2.622 11.61 3.017 11.905 2.789 11.6 2.393z"></path>
                <path fill="#6AD1E3"
                    d="m12.249 3.235.601.782-.295.228-.601-.782.295-.228Zm.944 1.228.602.78-.295.23-.602-.782.295-.228Zm.946 1.226.601.782-.295.229-.601-.78.295-.23Zm.96 1.861-.31-.405.294-.229.377.49 3.066-1.213a1.766 1.766 0 0 1 2.024.53c.1-.489 0-1.014-.327-1.44l-.83-1.077-.372.29-1.876-2.434.375-.289-.83-1.077A1.766 1.766 0 0 0 14.21.377l-2.61 2.016.306.396-.295.228-.304-.395L.723 10.803a1.777 1.777 0 0 0-.32 2.488l.828 1.077.337-.259a1.775 1.775 0 0 1 1.118-1.643L15.1 7.55Z">
                </path>
                <path fill="#FFF"
                    d="m9.425 9.741-.142-.565-1.438 1.104c-.275-.642-.207-1.127.206-1.444.236-.18.563-.291.976-.326l-.205-1.014c-.534.099-.964.27-1.3.528-.465.358-.741.804-.823 1.347-.074.455 0 .926.215 1.42l2.36-.934.151-.116Z">
                </path>
                <path fill="#FFF" d="M16.991 11.277 16.644 11.417 17.005 12.333 17.352 12.195z"></path>
                <path fill="#FFF" d="M16.422 9.836 16.074 9.974 16.437 10.892 16.783 10.753z"></path>
                <path fill="#FFF" d="M15.46 7.406 15.1 7.55 15.299 8.008 15.646 7.871z"></path>
                <path fill="#FFF" d="M15.853 8.394 15.507 8.532 15.868 9.45 16.215 9.312z"></path>
                <path fill="#FFF" d="M18.608 22.031 18.236 22.067 18.287 22.592 18.659 22.556z"></path>
                <path fill="#FFF" d="M18.312 18.944 17.941 18.98 18.035 19.963 18.406 19.927z"></path>
                <path fill="#FFF" d="M18.017 15.859 17.645 15.894 17.74 16.878 18.11 16.84z"></path>
                <path fill="#FFF" d="M18.459 20.489 18.088 20.524 18.184 21.507 18.555 21.47z"></path>
                <path fill="#FFF" d="M18.165 17.402 17.793 17.439 17.887 18.42 18.259 18.384z"></path>
                <path fill="#FFF" d="M17.963 15.298 17.869 14.315 17.499 14.351 17.592 15.334z"></path>
                <path fill="#FFF"
                    d="M17.815 13.754 17.771 13.257 17.767 13.257 17.771 13.256 17.559 12.718 17.212 12.856 17.384 13.295 17.385 13.295 17.444 13.791z">
                </path>
                <path fill="#AA0061"
                    d="m17.005 12.333-.361-.916.347-.14.361.918-.347.138Zm-.93-2.36.346-.137.362.917-.346.14-.363-.92Zm.13-.684.01.023-.347.138-.361-.919.346-.137.352.895Zm6.244 2.023-.437.175-1.13-2.86.44-.174-.499-1.264a1.766 1.766 0 0 0-2.297-.996L15.46 7.406l.186.465-.347.137-.2-.458-12.413 4.916a1.775 1.775 0 0 0-.995 2.302l.499 1.264.36-.142a1.77 1.77 0 0 1 1.542-1.32l13.293-1.275-.173-.439.346-.138.213.538 3.275-.314a1.768 1.768 0 0 1 1.816 1.115c.234-.443.285-.978.087-1.48l-.5-1.265Z">
                </path>
                <path fill="#FFF"
                    d="M10.67 12.527c.19-.017.398-.005.628.041l.06-.724.024-.307a3.343 3.343 0 0 0-1.054.046 2.24 2.24 0 0 0-.705.28 1.97 1.97 0 0 0-.793.876l-.006.01c-.192.407-.252.867-.19 1.386l2.663-.256.044-.017.02-.583-1.687.661c-.062-.49.023-.854.247-1.093.093-.1.605-.308.75-.32Z">
                </path>
            </g>
        </symbol>
    </defs>
    <g>
        <g fill="none" transform="translate(8 8)">
            <path fill="#840B55"
                d="m18.184 21.507-.096-.983.371-.035.096.981-.371.037Zm-.243-2.527.37-.036.095.983-.371.037-.094-.984Zm-.148-1.541.372-.037.094.982-.372.036-.094-.981Zm-.148-1.545.372-.035.093.98-.37.039-.095-.984Zm-.146-1.543.37-.036.092.959.002.024-.371.036-.093-.983Zm5.901 4.6-.469.046-.294-3.061.47-.045c-.124-1.122-.206-1.734-.245-1.834a1.768 1.768 0 0 0-1.816-1.115l-3.275.315.044.497-.371.036-.06-.497L4.093 14.57A1.77 1.77 0 0 0 2.5 16.505l.13 1.354.47-.045.292 3.06-.47.045.13 1.355a1.77 1.77 0 0 0 1.93 1.595l13.305-1.277-.051-.525.372-.036.05.525c2.402-.248 3.652-.39 3.75-.428a1.774 1.774 0 0 0 1.122-1.823l-.13-1.354Z">
            </path>
            <path fill="#FFF"
                d="M12.795 19.806a2.084 2.084 0 0 1-1.095.572c-.877.16-1.194-1.034-1.204-1.068l1.286-.12.105-.324.075-.231-1.575.147-.02-.312 1.656-.155.179-.554-1.803.167c.07-.458.237-.773.49-.95.128-.09.767-.16.94-.116.162.041.333.106.51.198l.226-.6.139-.367a3.424 3.424 0 0 0-.949-.24 4.781 4.781 0 0 0-.876.078c-.383.11-.706.313-.967.616-.338.386-.539.873-.6 1.484l-.378.034-.18.555.541-.05c-.003.014.004.119.021.312l-.296.028-.18.554.57-.053c.035.137.515 1.19.813 1.45.414.371.928.525 1.557.467a2.187 2.187 0 0 0 1.11-.402l-.095-1.12Z">
            </path>
            <path fill="#FFF" d="M13.844 5.919 14.444 6.7 14.741 6.471 14.139 5.689z"></path>
            <path fill="#FFF" d="M15.083 6.916 14.788 7.145 15.1 7.55 15.116 7.544 15.46 7.406z"></path>
            <path fill="#FFF" d="M12.898 4.691 13.5 5.472 13.795 5.243 13.193 4.463z"></path>
            <path fill="#FFF" d="M11.954 3.463 12.555 4.245 12.85 4.017 12.249 3.235z"></path>
            <path fill="#FFF" d="M11.306 2.622 11.61 3.017 11.905 2.789 11.6 2.393z"></path>
            <path fill="#6AD1E3"
                d="m12.249 3.235.601.782-.295.228-.601-.782.295-.228Zm.944 1.228.602.78-.295.23-.602-.782.295-.228Zm.946 1.226.601.782-.295.229-.601-.78.295-.23Zm.96 1.861-.31-.405.294-.229.377.49 3.066-1.213a1.766 1.766 0 0 1 2.024.53c.1-.489 0-1.014-.327-1.44l-.83-1.077-.372.29-1.876-2.434.375-.289-.83-1.077A1.766 1.766 0 0 0 14.21.377l-2.61 2.016.306.396-.295.228-.304-.395L.723 10.803a1.777 1.777 0 0 0-.32 2.488l.828 1.077.337-.259a1.775 1.775 0 0 1 1.118-1.643L15.1 7.55Z">
            </path>
            <path fill="#FFF"
                d="m9.425 9.741-.142-.565-1.438 1.104c-.275-.642-.207-1.127.206-1.444.236-.18.563-.291.976-.326l-.205-1.014c-.534.099-.964.27-1.3.528-.465.358-.741.804-.823 1.347-.074.455 0 .926.215 1.42l2.36-.934.151-.116Z">
            </path>
            <path fill="#FFF" d="M16.991 11.277 16.644 11.417 17.005 12.333 17.352 12.195z"></path>
            <path fill="#FFF" d="M16.422 9.836 16.074 9.974 16.437 10.892 16.783 10.753z"></path>
            <path fill="#FFF" d="M15.46 7.406 15.1 7.55 15.299 8.008 15.646 7.871z"></path>
            <path fill="#FFF" d="M15.853 8.394 15.507 8.532 15.868 9.45 16.215 9.312z"></path>
            <path fill="#FFF" d="M18.608 22.031 18.236 22.067 18.287 22.592 18.659 22.556z"></path>
            <path fill="#FFF" d="M18.312 18.944 17.941 18.98 18.035 19.963 18.406 19.927z"></path>
            <path fill="#FFF" d="M18.017 15.859 17.645 15.894 17.74 16.878 18.11 16.84z"></path>
            <path fill="#FFF" d="M18.459 20.489 18.088 20.524 18.184 21.507 18.555 21.47z"></path>
            <path fill="#FFF" d="M18.165 17.402 17.793 17.439 17.887 18.42 18.259 18.384z"></path>
            <path fill="#FFF" d="M17.963 15.298 17.869 14.315 17.499 14.351 17.592 15.334z"></path>
            <path fill="#FFF"
                d="M17.815 13.754 17.771 13.257 17.767 13.257 17.771 13.256 17.559 12.718 17.212 12.856 17.384 13.295 17.385 13.295 17.444 13.791z">
            </path>
            <path fill="#AA0061"
                d="m17.005 12.333-.361-.916.347-.14.361.918-.347.138Zm-.93-2.36.346-.137.362.917-.346.14-.363-.92Zm.13-.684.01.023-.347.138-.361-.919.346-.137.352.895Zm6.244 2.023-.437.175-1.13-2.86.44-.174-.499-1.264a1.766 1.766 0 0 0-2.297-.996L15.46 7.406l.186.465-.347.137-.2-.458-12.413 4.916a1.775 1.775 0 0 0-.995 2.302l.499 1.264.36-.142a1.77 1.77 0 0 1 1.542-1.32l13.293-1.275-.173-.439.346-.138.213.538 3.275-.314a1.768 1.768 0 0 1 1.816 1.115c.234-.443.285-.978.087-1.48l-.5-1.265Z">
            </path>
            <path fill="#FFF"
                d="M10.67 12.527c.19-.017.398-.005.628.041l.06-.724.024-.307a3.343 3.343 0 0 0-1.054.046 2.24 2.24 0 0 0-.705.28 1.97 1.97 0 0 0-.793.876l-.006.01c-.192.407-.252.867-.19 1.386l2.663-.256.044-.017.02-.583-1.687.661c-.062-.49.023-.854.247-1.093.093-.1.605-.308.75-.32Z">
            </path>
        </g>
    </g>
</svg>