<svg xmlns:xlink="http://www.w3.org/1999/xlink" data-component-name="icon" xmlns="http://www.w3.org/2000/svg"
    focusable="false" aria-hidden="true" class="a-icon a-icon--ui-aviation a-icon--medium-24" width="24" height="24">
    <defs>
        <symbol viewBox="0 0 24 24" id="station-departure">
            <path
                d="M20.5 17a.5.5 0 0 1 .5.5v1a.5.5 0 0 1-.5.5h-17a.5.5 0 0 1-.5-.5v-1a.5.5 0 0 1 .5-.5h17Zm-.255-7.639a1.5 1.5 0 0 1-1.06 1.837L7.761 14.26a1 1 0 0 1-1.103-.43l-1.291-2.034L18.408 8.3a1.5 1.5 0 0 1 1.837 1.06ZM4.584 8.9l3.68 2.113-2.902.778-1.736-2.634.958-.257Zm4.57-2.26 4.906 2.82-2.903.778-2.96-3.341.957-.257Z">
            </path>
        </symbol>
    </defs>
    <g>
        <path
            d="M20.5 17a.5.5 0 0 1 .5.5v1a.5.5 0 0 1-.5.5h-17a.5.5 0 0 1-.5-.5v-1a.5.5 0 0 1 .5-.5h17Zm-.255-7.639a1.5 1.5 0 0 1-1.06 1.837L7.761 14.26a1 1 0 0 1-1.103-.43l-1.291-2.034L18.408 8.3a1.5 1.5 0 0 1 1.837 1.06ZM4.584 8.9l3.68 2.113-2.902.778-1.736-2.634.958-.257Zm4.57-2.26 4.906 2.82-2.903.778-2.96-3.341.957-.257Z">
        </path>
    </g>
</svg>