<svg xmlns:xlink="http://www.w3.org/1999/xlink" data-component-name="icon" xmlns="http://www.w3.org/2000/svg"
    focusable="false" aria-hidden="true" class="a-icon a-icon--ui-aviation a-icon--medium-24" width="24" height="24">
    <defs>
        <symbol viewBox="0 0 24 24" id="station-arrival">
            <path
                d="M20.5 17a.5.5 0 0 1 .5.5v1a.5.5 0 0 1-.5.5h-17a.5.5 0 0 1-.5-.5v-1a.5.5 0 0 1 .5-.5h17Zm-2-6a1.5 1.5 0 0 1 0 3H6.675a1 1 0 0 1-.954-.7L5 11h13.5ZM9.992 7 14 10.994h-3.006L9 7h.992Zm-5 1L8 10.994H4.995L4 8h.992Z">
            </path>
        </symbol>
    </defs>
    <g>
        <path
            d="M20.5 17a.5.5 0 0 1 .5.5v1a.5.5 0 0 1-.5.5h-17a.5.5 0 0 1-.5-.5v-1a.5.5 0 0 1 .5-.5h17Zm-2-6a1.5 1.5 0 0 1 0 3H6.675a1 1 0 0 1-.954-.7L5 11h13.5ZM9.992 7 14 10.994h-3.006L9 7h.992Zm-5 1L8 10.994H4.995L4 8h.992Z">
        </path>
    </g>
</svg>