<svg height="64" viewBox="0 0 128 128" width="64" xmlns="http://www.w3.org/2000/svg"><path d="m79.2 25.5c-14.8-14.8-38.9-14.8-53.7 0s-14.8 38.9 0 53.7c7.4 7.4 17.1 11.1 26.9 11.1s19.5-3.7 26.9-11.1c14.7-14.8 14.7-38.9-.1-53.7zm-4.2 49.5c-12.5 12.5-32.8 12.5-45.3 0s-12.5-32.8 0-45.3c6.2-6.2 14.4-9.4 22.6-9.4s16.4 3.1 22.6 9.4c12.5 12.5 12.5 32.8.1 45.3z"/><path d="m104.7 113.7c2.3 0 4.6-.9 6.4-2.6 3.5-3.5 3.5-9.2 0-12.7l-12.8-12.8c-1.7-1.7-4-2.6-6.4-2.6-1.4 0-2.7.3-3.9.9l-2.5-2.5c-1.2-1.2-3.1-1.2-4.2 0-1.2 1.2-1.2 3.1 0 4.2l2.5 2.5c-.6 1.2-.9 2.5-.9 3.9 0 2.4.9 4.7 2.6 6.4l12.8 12.6c1.8 1.8 4.1 2.7 6.4 2.7zm-15.8-21.8c0-.8.3-1.6.9-2.1.6-.6 1.3-.9 2.1-.9s1.6.3 2.1.9l12.7 12.7c1.2 1.2 1.2 3.1 0 4.2-1.2 1.2-3.1 1.2-4.2 0l-12.7-12.6c-.6-.6-.9-1.4-.9-2.2z"/><path d="m52.3 26.3c-6.9 0-13.4 2.7-18.3 7.7-4.7 4.7-7.3 10.8-7.6 17.4-.1 1.7 1.2 3 2.9 3.1h.1c1.6 0 2.9-1.3 3-2.9.2-5.1 2.3-9.8 5.8-13.4 3.8-3.8 8.8-5.9 14.1-5.9 1.7 0 3-1.3 3-3s-1.3-3-3-3z"/><circle cx="35" cy="67" r="3"/></svg>