<svg xmlns:xlink="http://www.w3.org/1999/xlink" data-component-name="icon" xmlns="http://www.w3.org/2000/svg"
    focusable="false" aria-hidden="true" class="a-icon a-icon--cms a-icon--small" width="40" height="40">
    <defs>
        <symbol viewBox="0 0 40 40" id="a_ico-cms_211_handgepaeck">
            <g fill="none" fill-rule="evenodd">
                <path fill="#00A5CE"
                    d="M22.393 12c.697 0 1.31.462 1.502 1.133l.536 1.875A1.563 1.563 0 0 1 22.929 17H17.07a1.563 1.563 0 0 1-1.502-1.992l.536-1.875A1.562 1.562 0 0 1 17.607 12h4.786Zm0 1.25h-4.786a.313.313 0 0 0-.274.163l-.026.064-.536 1.875a.312.312 0 0 0 .229.39l.071.008h5.858a.313.313 0 0 0 .312-.327l-.012-.071-.536-1.875a.313.313 0 0 0-.232-.22l-.068-.007Z">
                </path>
                <path fill="#AF1E65"
                    d="m10 19.047 2.614 3.263.063.065a.5.5 0 0 0 .327.123H27.02l.09-.008a.5.5 0 0 0 .301-.18L30 19.057V26a2 2 0 0 1-2 2H12a2 2 0 0 1-2-2v-6.953ZM28 15a2 2 0 0 1 2 2v.452l-3.22 4.046H13.244L10 17.448V17a2 2 0 0 1 2-2h16Zm-8 2a1 1 0 1 0 0 2 1 1 0 0 0 0-2Z">
                </path>
                <path fill="#891B55"
                    d="m27.02 22.498.09-.008a.5.5 0 0 0 .301-.18h-.001.001L30 19.064V26a2 2 0 0 1-2 2H12a2 2 0 0 1-2-2v-6.942l2.382 2.963.232.29.063.064a.5.5 0 0 0 .327.123H27.02Z">
                </path>
            </g>
        </symbol>
    </defs>
    <g>
        <g fill="none" fill-rule="evenodd">
            <path fill="#00A5CE"
                d="M22.393 12c.697 0 1.31.462 1.502 1.133l.536 1.875A1.563 1.563 0 0 1 22.929 17H17.07a1.563 1.563 0 0 1-1.502-1.992l.536-1.875A1.562 1.562 0 0 1 17.607 12h4.786Zm0 1.25h-4.786a.313.313 0 0 0-.274.163l-.026.064-.536 1.875a.312.312 0 0 0 .229.39l.071.008h5.858a.313.313 0 0 0 .312-.327l-.012-.071-.536-1.875a.313.313 0 0 0-.232-.22l-.068-.007Z">
            </path>
            <path fill="#AF1E65"
                d="m10 19.047 2.614 3.263.063.065a.5.5 0 0 0 .327.123H27.02l.09-.008a.5.5 0 0 0 .301-.18L30 19.057V26a2 2 0 0 1-2 2H12a2 2 0 0 1-2-2v-6.953ZM28 15a2 2 0 0 1 2 2v.452l-3.22 4.046H13.244L10 17.448V17a2 2 0 0 1 2-2h16Zm-8 2a1 1 0 1 0 0 2 1 1 0 0 0 0-2Z">
            </path>
            <path fill="#891B55"
                d="m27.02 22.498.09-.008a.5.5 0 0 0 .301-.18h-.001.001L30 19.064V26a2 2 0 0 1-2 2H12a2 2 0 0 1-2-2v-6.942l2.382 2.963.232.29.063.064a.5.5 0 0 0 .327.123H27.02Z">
            </path>
        </g>
    </g>
</svg>