<svg xmlns:xlink="http://www.w3.org/1999/xlink" data-component-name="icon" xmlns="http://www.w3.org/2000/svg"
    focusable="false" aria-hidden="true" class="a-icon a-icon--cms a-icon--small" width="40" height="40">
    <defs>
        <symbol viewBox="0 0 40 40" id="a_ico-cms_209_2_cabin_bags_priority_boarding">
            <g fill="none" fill-rule="evenodd">
                <g transform="translate(10 11)">
                    <path fill="#AF1E65"
                        d="M0 15.3v-9a1.8 1.8 0 0 1 1.8-1.8h5.4A1.8 1.8 0 0 1 9 6.3v9a1.8 1.8 0 0 1-1.8 1.8H1.8A1.8 1.8 0 0 1 0 15.3Z">
                    </path>
                    <rect width="1.35" height="1.8" x="1.8" y="16.2" fill="#891B55" rx=".45"></rect>
                    <path fill="#00A5CE"
                        d="M5.4 0a1.35 1.35 0 0 1 1.344 1.22l.006.13V4.5h-.9V1.35a.45.45 0 0 0-.37-.443L5.4.9H3.6a.45.45 0 0 0-.443.37l-.007.08V4.5h-.9V1.35A1.35 1.35 0 0 1 3.47.006L3.6 0h1.8Z">
                    </path>
                    <rect width="1.35" height="1.8" x="5.85" y="16.2" fill="#891B55" rx=".45"></rect>
                </g>
                <path fill="#00A5CE"
                    d="M26.196 21c.35 0 .656.231.752.567l.267.937a.781.781 0 0 1-.75.996h-2.93a.781.781 0 0 1-.75-.996l.267-.937a.781.781 0 0 1 .752-.567h2.392Zm0 .625h-2.392a.156.156 0 0 0-.138.082l-.013.031-.268.938a.156.156 0 0 0 .115.195l.036.004h2.928a.156.156 0 0 0 .156-.164l-.005-.035-.268-.938a.156.156 0 0 0-.117-.11l-.034-.003Z">
                </path>
                <path fill="#AF1E65"
                    d="m20 24.524 1.307 1.631.031.033a.25.25 0 0 0 .164.06h7.008l.045-.003a.25.25 0 0 0 .15-.09L30 24.528V28a1 1 0 0 1-1 1h-8a1 1 0 0 1-1-1v-3.476Zm9-2.024a1 1 0 0 1 1 1v.226l-1.61 2.023h-6.768L20 23.723V23.5a1 1 0 0 1 1-1h8Zm-4 1a.5.5 0 1 0 0 1 .5.5 0 0 0 0-1Z">
                </path>
                <path fill="#891B55"
                    d="m28.51 26.249.045-.004a.25.25 0 0 0 .15-.09h-.001.002L30 24.532V28a1 1 0 0 1-1 1h-8a1 1 0 0 1-1-1v-3.47l1.082 1.344.225.281.031.033a.25.25 0 0 0 .164.06h7.008Z">
                </path>
            </g>
        </symbol>
    </defs>
    <g>
        <g fill="none" fill-rule="evenodd">
            <g transform="translate(10 11)">
                <path fill="#AF1E65"
                    d="M0 15.3v-9a1.8 1.8 0 0 1 1.8-1.8h5.4A1.8 1.8 0 0 1 9 6.3v9a1.8 1.8 0 0 1-1.8 1.8H1.8A1.8 1.8 0 0 1 0 15.3Z">
                </path>
                <rect width="1.35" height="1.8" x="1.8" y="16.2" fill="#891B55" rx=".45"></rect>
                <path fill="#00A5CE"
                    d="M5.4 0a1.35 1.35 0 0 1 1.344 1.22l.006.13V4.5h-.9V1.35a.45.45 0 0 0-.37-.443L5.4.9H3.6a.45.45 0 0 0-.443.37l-.007.08V4.5h-.9V1.35A1.35 1.35 0 0 1 3.47.006L3.6 0h1.8Z">
                </path>
                <rect width="1.35" height="1.8" x="5.85" y="16.2" fill="#891B55" rx=".45"></rect>
            </g>
            <path fill="#00A5CE"
                d="M26.196 21c.35 0 .656.231.752.567l.267.937a.781.781 0 0 1-.75.996h-2.93a.781.781 0 0 1-.75-.996l.267-.937a.781.781 0 0 1 .752-.567h2.392Zm0 .625h-2.392a.156.156 0 0 0-.138.082l-.013.031-.268.938a.156.156 0 0 0 .115.195l.036.004h2.928a.156.156 0 0 0 .156-.164l-.005-.035-.268-.938a.156.156 0 0 0-.117-.11l-.034-.003Z">
            </path>
            <path fill="#AF1E65"
                d="m20 24.524 1.307 1.631.031.033a.25.25 0 0 0 .164.06h7.008l.045-.003a.25.25 0 0 0 .15-.09L30 24.528V28a1 1 0 0 1-1 1h-8a1 1 0 0 1-1-1v-3.476Zm9-2.024a1 1 0 0 1 1 1v.226l-1.61 2.023h-6.768L20 23.723V23.5a1 1 0 0 1 1-1h8Zm-4 1a.5.5 0 1 0 0 1 .5.5 0 0 0 0-1Z">
            </path>
            <path fill="#891B55"
                d="m28.51 26.249.045-.004a.25.25 0 0 0 .15-.09h-.001.002L30 24.532V28a1 1 0 0 1-1 1h-8a1 1 0 0 1-1-1v-3.47l1.082 1.344.225.281.031.033a.25.25 0 0 0 .164.06h7.008Z">
            </path>
        </g>
    </g>
</svg>