<svg width="28" height="16" viewBox="0 0 28 16" fill="none" xmlns="http://www.w3.org/2000/svg">
    <path fill-rule="evenodd" clip-rule="evenodd"
        d="M10.26 0.0454785C8.03 -0.254522 6.9 0.985479 5.34 2.12548L0 6.32548L1.02 6.86548H1.03C2.37 7.52548 4.23001 7.30548 5.49001 6.36548L7.75 4.56548L8.61 3.88548L12.91 0.465478L10.26 0.0454785Z"
        fill="#7CC5D3" />
    <path fill-rule="evenodd" clip-rule="evenodd"
        d="M0 6.31548L1.02 6.86548H1.03C2.37 7.52548 4.23001 7.30548 5.49001 6.36548L8.61 3.88548L0 6.31548Z"
        fill="#2090B6" />
    <path fill-rule="evenodd" clip-rule="evenodd"
        d="M19.38 2.63548L16.52 2.12548C16.52 2.12548 14.52 1.64548 12.85 2.93548C12.85 2.93548 11.62 3.85548 10.71 4.56548L8.69 6.16548L4.02 9.87548L3.98 9.90548L5.39 10.6555C6.73 11.3155 8.59 11.0955 9.86 10.1555L14.04 6.84548L19.38 2.64548"
        fill="#7C2045" />
    <path fill-rule="evenodd" clip-rule="evenodd"
        d="M10.71 4.56548C11.62 3.85548 12.85 2.93548 12.85 2.93548C13.17 2.69548 13.49 2.51548 13.82 2.38548L8.62 3.88548L7.75 4.57548L5.5 6.36548C4.8634 6.83175 4.11582 7.12324 3.33161 7.21096C2.5474 7.29868 1.75389 7.17957 1.03 6.86548C2.17 7.55548 3.94 7.70548 6.61 6.91548L8.43 6.37548L8.7 6.16548L10.71 4.56548ZM18.05 6.16548C18.7107 5.59638 19.4356 5.1064 20.21 4.70548L14.38 6.57548L14.04 6.84548L9.86 10.1455C9.22432 10.6134 8.47719 10.9067 7.69296 10.9961C6.90873 11.0856 6.11474 10.9682 5.39 10.6555C7.45 11.7855 10.62 10.9555 13.28 10.0055L13.44 9.87548L18.05 6.15548M24.9 9.90548C22.57 9.22548 21.86 9.65548 19.11 10.4855L18.88 10.6855L14.43 14.2055C13.7689 14.6658 13.0013 14.9497 12.1997 15.0302C11.3982 15.1107 10.5894 14.9852 9.85 14.6655C11.5 15.5255 13.21 15.3155 16.13 14.4055L27.83 10.8055L24.9 9.90548Z"
        fill="#C1BEB9" />
    <path fill-rule="evenodd" clip-rule="evenodd"
        d="M25.68 5.05548L22.58 4.49548C20.73 4.14548 19.85 4.74548 18.05 6.15548L13.44 9.87548L8.44 13.9155L9.84 14.6655C11.18 15.3255 13.17 15.1455 14.44 14.2055L18.87 10.6855L25.68 5.05548Z"
        fill="#7C2045" />
    <path fill-rule="evenodd" clip-rule="evenodd"
        d="M8.43 6.37548L18.33 3.46548L14.38 6.57548L3.98 9.90548L8.43 6.37548ZM13.28 10.0055L24.05 6.40548L19.11 10.4855L8.43 13.9155L13.28 10.0155"
        fill="#A22455" />
</svg>